<?xml version="1.0" encoding="UTF-8"?>
<svg version="1.1" xmlns="http://www.w3.org/2000/svg" width="572" height="572">
<path d="M0 0 C1.30259766 -0.01611328 2.60519531 -0.03222656 3.94726562 -0.04882812 C17.31345307 -0.05548128 28.65679177 0.98782526 38.72265625 10.1484375 C44.68282673 16.43072391 51.55750385 25.50600834 52.5625 34.3125 C53.84898437 34.42207031 55.13546875 34.53164063 56.4609375 34.64453125 C61.3716317 35.06958806 66.27835692 35.53180831 71.18505859 36.00048828 C73.49163473 36.2135723 75.79935459 36.41453497 78.10791016 36.60498047 C81.65809807 36.89830084 85.20352015 37.22761261 88.75 37.5625 C89.87776855 37.64733643 91.00553711 37.73217285 92.16748047 37.81958008 C95.09286522 38.11417963 97.75606946 38.43582119 100.5625 39.3125 C102.82768953 42.19834355 103.3933846 43.86973425 103.8125 47.4453125 C102.9609087 54.23143068 100.4423197 60.14502486 97.5625 66.3125 C97.12808594 67.32441406 96.69367188 68.33632812 96.24609375 69.37890625 C94.27302805 72.81689312 92.12716497 74.64737925 89 77.0625 C85.14787283 80.03715455 85.14787283 80.03715455 81.5625 83.3125 C78.37309738 84.01109622 75.19598326 84.5709732 71.97265625 85.08007812 C70.1511983 85.40140745 68.35342644 85.85039169 66.5625 86.3125 C65.9025 87.3025 65.2425 88.2925 64.5625 89.3125 C64.93503906 89.97636719 65.30757812 90.64023438 65.69140625 91.32421875 C66.16449219 92.20722656 66.63757813 93.09023437 67.125 94 C67.60066406 94.87011719 68.07632813 95.74023438 68.56640625 96.63671875 C70.29782208 101.28777697 68.42444422 105.04992197 66.6875 109.5 C66.36007812 110.35980469 66.03265625 111.21960938 65.6953125 112.10546875 C64.5625 114.3125 64.5625 114.3125 61.5625 116.3125 C61.35559533 119.35809219 61.35559533 119.35809219 61.5 122.9375 C61.39918277 131.57488366 57.54069649 137.23702347 52.71484375 144.14453125 C50.37517493 146.94989101 50.37517493 146.94989101 50.5625 149.3125 C51.51503662 149.74071045 52.46757324 150.1689209 53.44897461 150.61010742 C57.02351929 152.2182949 60.59570164 153.83167342 64.16723633 155.4465332 C65.70567112 156.14128424 67.24472111 156.83467482 68.78442383 157.52661133 C87.23252346 165.819574 108.05460955 175.55182622 115.89520264 195.73207092 C119.85705208 206.66975394 120.98751863 217.32627682 121.8125 228.875 C122.03039041 231.67489182 122.25486888 234.47408616 122.48577881 237.27293396 C122.6259699 238.99413294 122.75797334 240.71602785 122.87994385 242.43861389 C123.45954922 249.95473866 124.77266209 256.37494564 128.6875 262.9375 C132.26015296 269.71860343 132.1624772 275.80167436 131.5625 283.3125 C132.40554688 282.879375 133.24859375 282.44625 134.1171875 282 C135.76074219 281.1646875 135.76074219 281.1646875 137.4375 280.3125 C138.52804687 279.755625 139.61859375 279.19875 140.7421875 278.625 C143.5625 277.3125 143.5625 277.3125 145.5625 277.3125 C145.57708252 278.16255615 145.59166504 279.0126123 145.60668945 279.88842773 C145.88818107 301.2321538 145.88818107 301.2321538 149.0390625 322.29296875 C149.55756252 325.28401739 149.59417012 326.53450615 148.5625 329.3125 C147.11962891 330.75024414 147.11962891 330.75024414 145.2890625 332.09765625 C144.6290625 332.63068359 143.9690625 333.16371094 143.2890625 333.71289062 C141.92095576 334.79491557 140.52811872 335.84660635 139.109375 336.86132812 C133.95691003 341.15671964 132.93227598 345.33543211 132.19140625 351.80859375 C130.75649021 364.23158072 125.84562198 374.93726785 120.875 386.3125 C119.99085306 388.37675489 119.10868287 390.44185759 118.22851562 392.5078125 C114.90515305 400.28913334 111.56283145 408.06125988 108.13427734 415.796875 C107.39533688 417.48950872 106.65655832 419.18221314 105.91796875 420.875 C105.57615067 421.63014893 105.23433258 422.38529785 104.88215637 423.16333008 C102.47472281 428.72368077 101.58517425 433.38052276 103.5625 439.3125 C104.69917262 455.49025922 100.59728135 471.41808416 97.10906982 487.07455444 C93.27084881 504.3315497 89.60560185 521.60676071 86.4375 539 C86.29365875 539.78569366 86.1498175 540.57138733 86.00161743 541.38088989 C84.32114304 550.51218781 84.32114304 550.51218781 83.04736328 559.70629883 C82.5625 563.3125 82.5625 563.3125 81.5625 564.3125 C79.77360298 564.36195975 77.98262283 564.33518038 76.19384766 564.28149414 C74.98272308 564.246483 73.77159851 564.21147186 72.52377319 564.17539978 C71.13302437 564.12900796 69.74228795 564.08224344 68.3515625 564.03515625 C66.86146156 563.98800454 65.37135938 563.94089202 63.8812561 563.89381409 C39.95219891 563.11401575 16.03279387 562.03571228 -7.88687778 561.01356375 C-14.83539618 560.71671977 -21.78402417 560.42247839 -28.73265958 560.12838829 C-42.96772437 559.52585646 -57.20265776 558.92026582 -71.4375 558.3125 C-71.4375 557.6525 -71.4375 556.9925 -71.4375 556.3125 C-70.1175 556.3125 -68.7975 556.3125 -67.4375 556.3125 C-69.02326424 551.52481538 -70.62295335 546.74208027 -72.23486328 541.96313477 C-72.77958669 540.34198007 -73.32070225 538.71960789 -73.85791016 537.09594727 C-76.97706754 527.677486 -80.20055127 518.81402489 -85.4375 510.3125 C-86.22253906 511.03695313 -87.00757813 511.76140625 -87.81640625 512.5078125 C-89.97746045 514.49987839 -92.1464347 516.48287856 -94.3203125 518.4609375 C-96.11087817 520.09057756 -97.87383809 521.73319873 -99.6171875 523.4140625 C-101.375 525.0625 -101.375 525.0625 -104.4375 527.3125 C-121.56305726 525.67991814 -136.90803682 510.13817223 -147.68017578 498.11499023 C-149.37693223 496.23687635 -149.37693223 496.23687635 -151.56469727 494.95849609 C-154.22181265 492.62317189 -154.35116646 490.61906874 -154.95703125 487.16796875 C-155.17423828 485.93240234 -155.39144531 484.69683594 -155.61523438 483.42382812 C-155.82470703 482.12896484 -156.03417969 480.83410156 -156.25 479.5 C-156.59321289 477.62151367 -156.59321289 477.62151367 -156.94335938 475.70507812 C-159.7173347 459.25633761 -156.55358543 443.64516968 -153.9375 427.375 C-153.45410175 424.33142612 -152.97233954 421.28759604 -152.49060059 418.24375916 C-152.19257386 416.36476717 -151.89325355 414.48597973 -151.59240723 412.60743713 C-151.20342151 410.17640523 -150.81939736 407.74465411 -150.4375 405.3125 C-150.23713135 404.04196777 -150.0367627 402.77143555 -149.83032227 401.46240234 C-149.5014909 398.82562035 -149.37853526 396.51637838 -149.55859375 393.87890625 C-149.60717529 393.07662598 -149.65575684 392.2743457 -149.70581055 391.44775391 C-149.76164307 390.59874512 -149.81747559 389.74973633 -149.875 388.875 C-150.3289239 380.72776046 -150.58040294 372.59750662 -150.625 364.4375 C-150.63781006 363.43404541 -150.65062012 362.43059082 -150.66381836 361.39672852 C-150.67162536 355.96259594 -150.2467965 351.44718334 -148.4375 346.3125 C-149.34757813 345.62027344 -150.25765625 344.92804688 -151.1953125 344.21484375 C-157.15452224 339.22431214 -160.78786442 331.57728321 -161.94921875 323.953125 C-162.02793644 318.79408886 -161.52135867 313.79696526 -160.7890625 308.69921875 C-159.43290777 298.9150393 -159.24223308 292.14027098 -163.2734375 283 C-164.4375 280.3125 -164.4375 280.3125 -164.4375 277.3125 C-158.26527121 278.55278238 -152.37067878 280.20853589 -146.4375 282.3125 C-146.59347656 281.59964844 -146.74945313 280.88679688 -146.91015625 280.15234375 C-148.27668845 273.42828133 -149.05102554 268.04908545 -146.25 261.5625 C-144.00501818 258.77562602 -141.64314061 257.82205742 -138.4375 256.3125 C-138.4281543 255.42916992 -138.41880859 254.54583984 -138.40917969 253.63574219 C-137.64665758 195.818625 -137.64665758 195.818625 -126.4453125 183.98046875 C-125.44961934 183.08341497 -124.44668898 182.1943435 -123.4375 181.3125 C-122.9022168 180.81443848 -122.36693359 180.31637695 -121.81542969 179.80322266 C-106.33255474 165.53565101 -82.62051875 152.40217617 -61.4375 150.3125 C-61.334375 149.19875 -61.23125 148.085 -61.125 146.9375 C-59.33031477 133.81532096 -59.33031477 133.81532096 -55.23828125 130.56640625 C-53.00798613 129.33046563 -50.80505462 128.25555111 -48.4375 127.3125 C-48.74169724 119.58277019 -50.97859587 114.77139326 -55 108.25 C-56.0983804 106.40171345 -57.19340803 104.55143054 -58.28515625 102.69921875 C-58.82285645 101.79091309 -59.36055664 100.88260742 -59.91455078 99.94677734 C-63.41181673 93.89748276 -66.41093389 87.6057204 -69.4375 81.3125 C-70.118125 80.02666016 -70.118125 80.02666016 -70.8125 78.71484375 C-73.80086019 72.83150962 -73.84675431 67.82498157 -73.4375 61.3125 C-73.44007813 60.41015625 -73.44265625 59.5078125 -73.4453125 58.578125 C-73.08378791 44.0368025 -66.42365344 30.60030196 -56.4375 20.3125 C-55.52390687 19.32368538 -54.61117474 18.33407471 -53.69921875 17.34375 C-48.80443612 12.13402385 -44.23671049 7.74762971 -37.4375 5.3125 C-36.43009766 4.90644531 -36.43009766 4.90644531 -35.40234375 4.4921875 C-24.05426924 0.24953169 -11.97413602 -0.0295366 0 0 Z " fill="#131413" transform="translate(293.4375,7.6875)"/>
<path d="M0 0 C3.77429741 0.00576464 7.54852471 0.00235954 11.32281971 -0.00357246 C14.26458767 -0.00719275 17.20633906 -0.0060339 20.14810753 -0.00344467 C21.5406565 -0.00278298 22.93320702 -0.00357696 24.32575417 -0.00592422 C26.26436964 -0.00848266 28.2029905 -0.00388762 30.14160156 0.00097656 C31.23821609 0.00177216 32.33483063 0.00256775 33.4646759 0.00338745 C38.94385515 0.21994716 43.64289474 0.99066801 48.67749023 3.13037109 C49.77061523 3.41912109 50.86374023 3.70787109 51.98999023 4.00537109 C54.7505898 4.84758791 56.80361293 5.63293331 59.30249023 6.94287109 C62.68159822 8.71010573 66.09741906 10.06767833 69.67749023 11.38037109 C82.2666387 16.17623718 93.21874795 21.34686512 102.67749023 31.13037109 C103.66749023 32.12037109 103.66749023 32.12037109 104.67749023 33.13037109 C108.90913 42.18608018 109.44923191 52.60402458 110.13842773 62.42724609 C110.21826904 63.55912354 110.29811035 64.69100098 110.38037109 65.85717773 C110.53333429 68.11342469 110.67530848 70.37045172 110.8046875 72.62817383 C111.67674776 85.88529203 115.6295451 98.32247822 121.67749023 110.13037109 C122.66751915 113.26769244 122.78314674 116.1004768 122.73999023 119.38037109 C122.7309668 120.27240234 122.72194336 121.16443359 122.71264648 122.08349609 C122.69524414 123.09669922 122.69524414 123.09669922 122.67749023 124.13037109 C93.13811941 140.05088201 93.13811941 140.05088201 84.67749023 138.13037109 C82.86108398 136.91552734 82.86108398 136.91552734 81.67749023 135.13037109 C81.66186523 132.66552734 81.66186523 132.66552734 82.67749023 130.13037109 C85.00561523 128.25146484 85.00561523 128.25146484 87.92749023 126.56787109 C94.93637661 122.46672542 100.07464934 119.03845599 102.67749023 111.13037109 C102.97424503 108.3606597 102.87723563 105.92680669 102.67749023 103.13037109 C95.06910514 105.70669746 87.77509434 108.33903849 80.66577148 112.11474609 C78.67749023 113.13037109 78.67749023 113.13037109 75.67749023 114.13037109 C76.15562051 109.5403205 77.13195125 105.79335326 78.80175781 101.46240234 C80.45353517 97.0638026 81.89140131 92.5911309 83.36499023 88.13037109 C83.68532227 87.16486328 84.0056543 86.19935547 84.33569336 85.20458984 C85.11767572 82.84697138 85.89824368 80.48889492 86.67749023 78.13037109 C87.33749023 78.13037109 87.99749023 78.13037109 88.67749023 78.13037109 C88.53719605 75.98416849 88.3901086 73.83840891 88.23999023 71.69287109 C88.1587793 70.49791016 88.07756836 69.30294922 87.99389648 68.07177734 C88.0009291 65.24466865 88.0009291 65.24466865 86.67749023 64.13037109 C83.12247317 63.72639188 81.18603259 63.83977546 78.05249023 65.63037109 C74.99673001 68.8469608 73.51082982 72.12976222 71.67749023 76.13037109 C70.70051365 78.02733397 69.72117571 79.9230818 68.73999023 81.81787109 C65.59859147 88.10066862 63.04987134 94.52351352 60.67749023 101.13037109 C60.24436523 102.26474609 59.81124023 103.39912109 59.36499023 104.56787109 C57.5115929 114.17183911 58.30009468 122.70574654 61.80249023 131.80224609 C62.67749023 134.13037109 62.67749023 134.13037109 62.67749023 136.13037109 C63.33749023 136.13037109 63.99749023 136.13037109 64.67749023 136.13037109 C66.13811874 138.77776026 66.67749023 140.02485444 66.67749023 143.13037109 C60.24249023 144.12037109 60.24249023 144.12037109 53.67749023 145.13037109 C55.67567259 157.11946526 63.05999078 166.31993359 71.30249023 175.00537109 C73.67749023 178.13037109 73.67749023 178.13037109 73.98999023 181.06787109 C71.08350231 187.84967626 66.43874181 192.27296967 59.67749023 195.13037109 C57.04712052 195.43077347 54.64030656 195.59433643 52.01342773 195.60693359 C50.94168808 195.63030289 50.94168808 195.63030289 49.84829712 195.65414429 C47.58303844 195.70134943 45.31808214 195.72931872 43.05249023 195.75537109 C40.77997196 195.791978 38.50762062 195.83267659 36.23526001 195.87802124 C34.82632266 195.90504228 33.41726397 195.9264813 32.00814819 195.94155884 C28.73449255 195.99396736 25.82696057 196.25709712 22.67749023 197.13037109 C19.83361078 197.22554029 17.02036182 197.26985092 14.17749023 197.25537109 C13.41823242 197.25923828 12.65897461 197.26310547 11.87670898 197.26708984 C8.29138759 197.26081082 5.13139494 197.02218612 1.67749023 196.13037109 C-0.73722064 195.95510982 -3.15441899 195.81279665 -5.57250977 195.69287109 C-11.04354086 195.38638744 -16.07491599 194.73677735 -21.32250977 193.13037109 C-21.32250977 192.47037109 -21.32250977 191.81037109 -21.32250977 191.13037109 C-22.60125977 190.82099609 -23.88000977 190.51162109 -25.19750977 190.19287109 C-31.53836195 188.09589636 -35.66430078 183.74917053 -40.32250977 179.13037109 C-40.9709082 178.51935547 -41.61930664 177.90833984 -42.28735352 177.27880859 C-43.68223989 175.94628185 -45.01119183 174.54521412 -46.32250977 173.13037109 C-46.32250977 172.47037109 -46.32250977 171.81037109 -46.32250977 171.13037109 C-48.30250977 171.79037109 -50.28250977 172.45037109 -52.32250977 173.13037109 C-53.47189327 176.96164943 -53.48740441 179.43572409 -51.82250977 183.00537109 C-49.65103906 186.98130337 -46.81919836 190.19058606 -43.71313477 193.46630859 C-42.32250977 195.13037109 -42.32250977 195.13037109 -42.32250977 197.13037109 C-59.16488764 198.05016115 -59.16488764 198.05016115 -64.70141602 193.68505859 C-65.23637695 193.17201172 -65.77133789 192.65896484 -66.32250977 192.13037109 C-67.23323242 191.29892578 -67.23323242 191.29892578 -68.16235352 190.45068359 C-71.30724632 187.2416093 -71.30724632 187.2416093 -72.32250977 185.13037109 C-72.09279566 180.35231761 -70.41488569 177.10208279 -67.94750977 173.06787109 C-67.34165039 172.06626953 -66.73579102 171.06466797 -66.11157227 170.03271484 C-64.99432683 168.22024026 -63.84651248 166.42585052 -62.65454102 164.66162109 C-60.12339621 159.8517037 -60.08044605 154.48266879 -60.32250977 149.13037109 C-61.56505903 145.70702108 -63.76610027 143.68678059 -66.32250977 141.13037109 C-66.11547852 138.85302734 -66.11547852 138.85302734 -65.51000977 136.19287109 C-65.31793945 135.31759766 -65.12586914 134.44232422 -64.92797852 133.54052734 C-64.32250977 131.13037109 -64.32250977 131.13037109 -63.32250977 128.13037109 C-62.75373062 114.99554095 -63.78132601 103.52313424 -68.32250977 91.13037109 C-68.59836914 90.31568359 -68.87422852 89.50099609 -69.15844727 88.66162109 C-71.79653417 81.35614965 -75.83894768 75.61393317 -81.32250977 70.13037109 C-84.82250977 69.79703776 -84.82250977 69.79703776 -88.32250977 70.13037109 C-90.55642552 71.91131381 -90.55642552 71.91131381 -90.40454102 74.26708984 C-90.27112305 75.52972656 -90.27112305 75.52972656 -90.13500977 76.81787109 C-90.05895508 77.64673828 -89.98290039 78.47560547 -89.90454102 79.32958984 C-89.32053073 82.13989435 -88.33290914 84.52862417 -87.15820312 87.13793945 C-85.53362296 91.01120814 -84.39793023 95.04736739 -83.19750977 99.06787109 C-82.93325195 99.92316406 -82.66899414 100.77845703 -82.39672852 101.65966797 C-80.32337053 108.55858248 -79.17416039 115.14206495 -79.19750977 122.38037109 C-79.19364258 123.59466797 -79.19364258 123.59466797 -79.18969727 124.83349609 C-79.31834937 127.05842072 -79.70520696 128.99430741 -80.32250977 131.13037109 C-84.22118325 130.72425927 -87.15047519 130.20068758 -90.81079102 128.70458984 C-97.18033882 126.24426532 -104.00730719 125.69982278 -110.74243164 124.84521484 C-119.49273856 123.56468212 -119.49273856 123.56468212 -122.51000977 120.68115234 C-124.32250977 118.13037109 -124.32250977 118.13037109 -125.13500977 115.19287109 C-123.85123866 110.35404153 -120.38162933 108.76489581 -116.32250977 106.13037109 C-114.52717723 104.885642 -112.73551015 103.63560974 -110.94750977 102.38037109 C-110.11477539 101.80802734 -109.28204102 101.23568359 -108.42407227 100.64599609 C-106.24552605 99.15998919 -106.24552605 99.15998919 -104.32250977 97.13037109 C-104.08038104 95.14908601 -104.08038104 95.14908601 -104.19750977 93.00537109 C-104.23875977 91.72662109 -104.28000977 90.44787109 -104.32250977 89.13037109 C-107.62250977 88.80037109 -110.92250977 88.47037109 -114.32250977 88.13037109 C-114.12915039 86.48552734 -113.93579102 84.84068359 -113.73657227 83.14599609 C-113.47331239 80.89081565 -113.21031015 78.63560513 -112.94750977 76.38037109 C-112.74061523 74.61391235 -112.74061523 74.61391235 -112.52954102 72.81176758 C-111.79210545 66.44750909 -111.11700136 60.08536902 -110.54907227 53.70385742 C-108.58129587 31.8950425 -108.58129587 31.8950425 -102.32250977 26.13037109 C-97.84856132 22.78959908 -93.53379847 20.14792109 -88.32250977 18.13037109 C-87.49750977 17.63537109 -86.67250977 17.14037109 -85.82250977 16.63037109 C-80.6090873 13.50231762 -75.21697327 12.33751613 -69.32250977 11.13037109 C-69.32250977 10.47037109 -69.32250977 9.81037109 -69.32250977 9.13037109 C-67.48997104 8.3576506 -65.65643234 7.58730148 -63.82250977 6.81787109 C-62.29110352 6.17398438 -62.29110352 6.17398438 -60.72875977 5.51708984 C-59.60469727 5.05947266 -58.48063477 4.60185547 -57.32250977 4.13037109 C-56.10523193 3.62078857 -54.8879541 3.11120605 -53.63378906 2.58618164 C-49.4322097 1.02851198 -45.39384629 0.58013635 -40.93579102 0.45068359 C-39.67657585 0.40115036 -39.67657585 0.40115036 -38.391922 0.35061646 C-25.60265052 -0.08338968 -12.79525397 -0.01955799 0 0 Z " fill="#FAFAFA" transform="translate(286.322509765625,173.86962890625)"/>
<path d="M0 0 C0.33 6.6 0.66 13.2 1 20 C9.415 19.505 9.415 19.505 18 19 C18.33 12.73 18.66 6.46 19 0 C34.18 0.33 49.36 0.66 65 1 C65 7.27 65 13.54 65 20 C70.61 20 76.22 20 82 20 C81.979375 18.55625 81.95875 17.1125 81.9375 15.625 C81.86123443 10.28641 82.45670592 5.43294083 83 0 C90.92 0 98.84 0 107 0 C107.12375 2.3925 107.2475 4.785 107.375 7.25 C107.98912088 17.43115063 109.26724251 26.83383911 112.9921875 36.39453125 C114.20550137 39.5312768 115.20739786 42.71485262 116.19140625 45.9296875 C117.1927709 48.49356802 118.53473756 50.67033813 120 53 C120.5671875 53.90878906 121.134375 54.81757813 121.71875 55.75390625 C122.3065625 56.68074219 122.894375 57.60757813 123.5 58.5625 C124.0878125 59.49191406 124.675625 60.42132813 125.28125 61.37890625 C126.86281859 63.96907022 126.86281859 63.96907022 128.71875 65.77734375 C132.49381149 72.32615469 129.26984534 81.82066726 127.875 88.75 C125.71289457 99.93077209 123.79520398 111.13061482 122 122.375 C121.4942932 125.53137925 120.9876668 128.68761005 120.48046875 131.84375 C120.35642166 132.61582794 120.23237457 133.38790588 120.10456848 134.18338013 C117.36701207 151.17369483 114.53308347 168.15493343 111 185 C98.31987039 185.14558747 85.68885001 184.75865226 73.02148438 184.20043945 C69.84525703 184.06119609 66.66877036 183.92968306 63.4921875 183.79882812 C61.45050123 183.71139413 59.40883376 183.62351971 57.3671875 183.53515625 C56.4285788 183.49656998 55.48997009 183.4579837 54.5229187 183.41822815 C49.61749253 183.19684663 44.84690564 182.79288107 40 182 C40 179.36 40 176.72 40 174 C40.85722656 173.57589844 41.71445312 173.15179687 42.59765625 172.71484375 C52.51758 167.86199654 52.51758 167.86199654 60 160 C60.80689015 157.1882601 60.94805104 154.96109067 61 152 C59.85660156 151.93941406 58.71320313 151.87882813 57.53515625 151.81640625 C56.04425695 151.73201572 54.55337225 151.64736698 53.0625 151.5625 C52.30775391 151.52318359 51.55300781 151.48386719 50.77539062 151.44335938 C45.11328125 151.11328125 45.11328125 151.11328125 44 150 C43.39848554 142.6419394 44.12794013 135.20512033 44.8125 127.875 C44.88251221 127.03340332 44.95252441 126.19180664 45.0246582 125.32470703 C45.2416266 123.20261338 45.61015681 121.09723128 46 119 C49.21106111 116.85929259 50.9888805 116.53457536 54.75 116 C59.3077013 115.29503181 63.59284356 114.38743814 68 113 C68.80308594 112.78472656 69.60617187 112.56945312 70.43359375 112.34765625 C76.97468484 110.54958515 82.09470688 108.85793968 86 103 C86.16713569 100.37468476 86.16713569 100.37468476 86 98 C84.67162109 97.92652344 84.67162109 97.92652344 83.31640625 97.8515625 C79.20763094 97.6035823 75.10408477 97.31528307 71 97 C69.9181543 96.91927246 69.9181543 96.91927246 68.81445312 96.83691406 C51.34152664 95.44755737 39.02154757 88.47321226 24.25927734 79.37451172 C21.20781571 77.51804652 18.11263759 75.75164626 15 74 C15 73.34 15 72.68 15 72 C14.01 72.33 13.02 72.66 12 73 C12 76.63 12 80.26 12 84 C12.66 84 13.32 84 14 84 C15.19140625 85.65234375 15.19140625 85.65234375 16.5625 87.9375 C20.62240099 94.25734588 25.73356373 99.82237582 32 104 C33.22722535 110.47301214 31.61228257 116.12236422 29 122 C18.83000297 121.67193558 11.81356819 117.13308915 4.5703125 110.19921875 C2.75054757 108.80949777 1.23358453 108.41094088 -1 108 C-0.96500091 118.34223105 1.46551373 124.1167071 8.4375 131.625 C9.7059375 132.800625 9.7059375 132.800625 11 134 C12.1255018 135.16618258 13.25046359 136.33288648 14.375 137.5 C17.66059661 140.80003879 21.14119311 143.40121169 25 146 C24.25 152.625 24.25 152.625 22 156 C13.54882321 155.29573527 7.70749546 152.15590116 1.73828125 146.171875 C-3.10134986 140.125055 -6.11364934 133.81370068 -8.5625 126.5 C-8.8613208 125.6227124 -9.1601416 124.7454248 -9.46801758 123.84155273 C-16.08199493 104.0606783 -21.18232511 82.44058711 -21.1328125 61.5078125 C-21.13413177 60.61160187 -21.13545105 59.71539124 -21.1368103 58.79202271 C-21.13871327 55.90297901 -21.13242221 53.01403369 -21.125 50.125 C-21.12411377 49.14511108 -21.12322754 48.16522217 -21.12231445 47.15563965 C-21.10591141 31.75003041 -20.83645604 16.38545201 -20 1 C-17.60429729 0.8312461 -15.20846637 0.66493164 -12.8125 0.5 C-12.13896484 0.45230469 -11.46542969 0.40460938 -10.77148438 0.35546875 C-7.1617098 0.10894756 -3.62359008 0 0 0 Z " fill="#FAFBFA" transform="translate(247,386)"/>
<path d="M0 0 C7.81394318 0.48722234 14.24148845 2.00747938 21.4453125 5.01953125 C22.4353125 5.34953125 23.4253125 5.67953125 24.4453125 6.01953125 C24.64011655 12.41559742 24.62444331 18.32647713 23.015625 24.53515625 C22.28501606 27.71780887 21.87547825 30.90804606 21.4453125 34.14453125 C20.78803172 38.94062695 19.87077203 43.38678778 18.4453125 48.01953125 C17.93135177 50.39066102 17.47233336 52.76879342 17.01953125 55.15234375 C16.60174596 57.23842813 16.14002859 59.31585997 15.65234375 61.38671875 C13.52676462 70.50774844 12.40749002 78.80002794 14.4453125 88.01953125 C15.1053125 88.01953125 15.7653125 88.01953125 16.4453125 88.01953125 C16.84363281 88.75558594 17.24195313 89.49164063 17.65234375 90.25 C18.18214844 91.22582031 18.71195313 92.20164062 19.2578125 93.20703125 C19.77988281 94.16996094 20.30195313 95.13289063 20.83984375 96.125 C21.82557055 97.90218628 22.8486552 99.65999017 23.93164062 101.37963867 C26.41614587 105.71269596 27.67239356 110.38826079 29.1328125 115.14453125 C29.45314453 116.12679687 29.77347656 117.1090625 30.10351562 118.12109375 C32.19673702 124.90509487 32.86020506 130.93417534 32.4453125 138.01953125 C30.7953125 138.01953125 29.1453125 138.01953125 27.4453125 138.01953125 C24.09936592 132.83871074 22.87704754 129.17175561 22.4453125 123.01953125 C21.72472656 122.94605469 21.00414062 122.87257813 20.26171875 122.796875 C16.68598783 121.80995343 15.03803338 120.14696642 12.3828125 117.58203125 C9.52708671 114.8407105 7.11207792 112.56922657 3.4453125 111.01953125 C1.0225424 112.86083653 0.47958368 113.82532791 -0.05859375 116.875 C-0.17547727 123.52177596 0.00120015 128.21091901 4.51953125 133.30078125 C8.4388255 136.7987315 12.74906315 139.67140657 17.4453125 142.01953125 C17.81005414 146.51801149 17.81005414 146.51801149 16.2578125 148.65234375 C13.15013422 150.99649762 10.06525246 150.60653141 6.296875 150.4921875 C-0.90020534 149.29924679 -5.24971652 143.61116833 -9.42578125 138.046875 C-17.69645965 123.19399579 -10.60742885 96.13925683 -6.99536133 80.61572266 C-5.08426095 71.80125969 -5.16132428 62.90072339 -5.03369141 53.92153931 C-4.97761658 50.00071299 -4.90136055 46.08036097 -4.82595825 42.15986633 C-4.78846315 40.20552817 -4.75189694 38.25117196 -4.71627808 36.29679871 C-4.56603587 28.1388733 -4.3456644 19.98619104 -4.0546875 11.83203125 C-4.01915771 10.72408203 -3.98362793 9.61613281 -3.94702148 8.47460938 C-3.91036377 7.48525391 -3.87370605 6.49589844 -3.8359375 5.4765625 C-3.79049805 4.20776245 -3.79049805 4.20776245 -3.74414062 2.91333008 C-3.44726811 -0.05424734 -3.01247557 0.02303116 0 0 Z " fill="#F3F4F3" transform="translate(166.5546875,351.98046875)"/>
<path d="M0 0 C3.7363258 0.49162182 7.17654592 1.3445456 10.75 2.5 C14.39368811 3.67059663 17.4945953 4.11353165 21.3125 4.1875 C24.28631146 4.4069178 25.53399151 4.53617422 27.66796875 6.66015625 C28.98356486 8.72421467 30.0283276 10.75539432 31 13 C31.433125 13.928125 31.86625 14.85625 32.3125 15.8125 C33 18 33 18 33 21 C31.02 21.66 29.04 22.32 27 23 C26.95512451 23.74685059 26.91024902 24.49370117 26.86401367 25.26318359 C26.65318327 28.63489474 26.42062661 32.00476024 26.1875 35.375 C26.08211914 37.1384375 26.08211914 37.1384375 25.97460938 38.9375 C25.89404297 40.05898437 25.81347656 41.18046875 25.73046875 42.3359375 C25.66239014 43.37282715 25.59431152 44.4097168 25.52416992 45.47802734 C25 48 25 48 22 50 C13.53932912 51.20666285 5.64964005 49.20021575 -2.43359375 46.97265625 C-7.80339566 45.50816482 -12.4643353 44.87857164 -18.05078125 44.90234375 C-19.03899117 44.90446617 -19.03899117 44.90446617 -20.04716492 44.90663147 C-22.13565762 44.912195 -24.22404011 44.92474053 -26.3125 44.9375 C-27.73502449 44.94251972 -29.15755066 44.9470818 -30.58007812 44.95117188 C-34.05342077 44.96215243 -37.52669961 44.97939165 -41 45 C-40.2578125 41.21875 -40.2578125 41.21875 -37.9375 39.25 C-34.17083611 37.6471643 -31.03984304 37.35000489 -27 38 C-25.31970006 38.97691857 -23.65071396 39.97388051 -22 41 C-19.42459787 40.83492354 -19.42459787 40.83492354 -17 40 C-15.02 39.505 -15.02 39.505 -13 39 C-12.34 35.7 -11.68 32.4 -11 29 C-12.051875 29.0825 -13.10375 29.165 -14.1875 29.25 C-18.73934286 28.9515185 -19.8917171 28.27187674 -23 25 C-26.00013181 21.26429868 -28.29825457 17.74817474 -28.625 12.875 C-27.81582503 7.85811519 -26.81653535 6.31872639 -23 3 C-20.0625 2 -20.0625 2 -17 3 C-14.61683692 6.14244992 -12.82871546 9.5153142 -11 13 C-9.50256881 14.49743119 -8.01175761 14.33202693 -5.9375 14.5625 C-4.638125 14.706875 -3.33875 14.85125 -2 15 C-1.90912109 13.75283203 -1.90912109 13.75283203 -1.81640625 12.48046875 C-1.73261719 11.39378906 -1.64882813 10.30710937 -1.5625 9.1875 C-1.48128906 8.10855469 -1.40007812 7.02960938 -1.31640625 5.91796875 C-1 3 -1 3 0 0 Z " fill="#F6F7F7" transform="translate(312,88)"/>
<path d="M0 0 C1.59998773 4.20587493 2.35716547 8.14244099 2.88598633 12.57275391 C4.76202656 28.06413717 8.77096986 44.1760629 18 57 C18.75088139 58.12615135 19.49938693 59.25388883 20.24609375 60.3828125 C27.03329269 70.46257084 34.89097092 78.18739345 45 85 C44.38801624 88.43950364 43.07941153 90.51564485 40.9375 93.25 C40.38964844 93.95640625 39.84179688 94.6628125 39.27734375 95.390625 C38.64505859 96.18726563 38.64505859 96.18726563 38 97 C24.33742946 94.57109857 14.26716411 82.22752916 6.70214844 71.46630859 C-0.23350175 61.39714546 -5.13540545 51.62230465 -9 40 C-9.55435557 38.60091214 -10.11536455 37.20441162 -10.6875 35.8125 C-13.48002479 28.2758564 -14.20592 20.54090601 -14.375 12.5625 C-14.40102295 11.87607422 -14.4270459 11.18964844 -14.45385742 10.48242188 C-14.46612504 7.05425612 -14.24975738 5.31707881 -12.1015625 2.58984375 C-7.9621758 -0.54162537 -5.08216499 -0.0819704 0 0 Z " fill="#141514" transform="translate(274,211)"/>
<path d="M0 0 C11.76557945 7.899035 19.25330983 20.89009382 24 34 C24.16015625 36.8828125 24.16015625 36.8828125 24 39 C18.53928581 41.85067792 13.1433991 44.15531291 7.3125 46.125 C5.84993959 46.6266698 4.38769143 47.12925101 2.92578125 47.6328125 C2.24427002 47.86532715 1.56275879 48.0978418 0.8605957 48.33740234 C-0.6975945 48.89230698 -2.22835135 49.52344518 -3.75 50.171875 C-6.10936538 51.04025253 -7.81454563 51.20967642 -10.3125 51.125 C-11.529375 51.08375 -12.74625 51.0425 -14 51 C-14.07734375 49.91332031 -14.07734375 49.91332031 -14.15625 48.8046875 C-14.77696759 42.951846 -14.77696759 42.951846 -17.73828125 38.0390625 C-20.70189673 35.84007097 -23.67288346 34.15674334 -27 32.5625 C-29 31 -29 31 -29.6875 28.0625 C-29.06252524 19.65212536 -23.14682338 10.5691701 -17 5 C-11.95634142 0.80230538 -6.58288124 -2.16249239 0 0 Z " fill="#F7F8F8" transform="translate(269,33)"/>
<path d="M0 0 C-0.99034241 6.12448594 -2.46263487 11.67369618 -4.90234375 17.3828125 C-6.07383099 20.1760383 -7.13431745 22.99797069 -8.19018555 25.83642578 C-10.45977117 31.90005791 -12.84461374 37.92055927 -15.20263672 43.95019531 C-15.84295251 45.59627351 -16.47212684 47.24668367 -17.09765625 48.8984375 C-19.89178031 56.18009414 -23.44408603 63.06796546 -27 70 C-29.1391959 66.79120615 -30.37549723 63.61048185 -31.625 60 C-32.07101562 58.7625 -32.51703125 57.525 -32.9765625 56.25 C-35.85741989 45.95249321 -33.28550365 35.18786827 -31.49145508 24.89916992 C-31.05820415 22.41284717 -30.63841795 19.92452251 -30.22070312 17.43554688 C-29.95128792 15.85143185 -29.68113318 14.26744238 -29.41015625 12.68359375 C-29.28407486 11.94096786 -29.15799347 11.19834198 -29.02809143 10.43321228 C-28.11704667 5.23409335 -28.11704667 5.23409335 -27 3 C-24.39850033 2.54562848 -21.87163138 2.20289402 -19.25 1.9375 C-1.18990499 -0.02767221 -1.18990499 -0.02767221 0 0 Z " fill="#F3F4F4" transform="translate(407,356)"/>
<path d="M0 0 C0.804375 0.144375 1.60875 0.28875 2.4375 0.4375 C6.61359481 1.09688339 10.79598059 1.56091353 15 2 C15 2.66 15 3.32 15 4 C16.7634375 3.938125 16.7634375 3.938125 18.5625 3.875 C22.68963267 3.8822279 26.05850501 4.70882061 30 6 C30.69222656 6.15984375 31.38445312 6.3196875 32.09765625 6.484375 C40.85234484 8.64747001 48.3091063 13.44844132 56 18 C56.18957424 23.51345092 55.08401775 26.96362376 53 32 C47.16757686 31.60202289 41.53658241 30.75551928 35.8125 29.5625 C28.24247818 27.98669954 20.67611679 26.92548926 13 26 C13 25.34 13 24.68 13 24 C12.40832031 24.01160156 11.81664062 24.02320313 11.20703125 24.03515625 C10.41683594 24.04417969 9.62664062 24.05320312 8.8125 24.0625 C8.03519531 24.07410156 7.25789062 24.08570313 6.45703125 24.09765625 C3.87887289 23.99518573 1.51344269 23.56697553 -1 23 C-1.02706445 20.10410348 -1.04687029 17.20846205 -1.0625 14.3125 C-1.07087891 13.49587891 -1.07925781 12.67925781 -1.08789062 11.83789062 C-1.10442051 7.75500916 -1.03035098 3.98348293 0 0 Z " fill="#F5F6F5" transform="translate(152,310)"/>
<path d="M0 0 C0.33965474 2.18652739 0.67142477 4.37428025 1 6.5625 C1.185625 7.78066406 1.37125 8.99882812 1.5625 10.25390625 C2.706988 20.05358475 2.706988 20.05358475 0.77734375 22.63671875 C-6.04771368 26.53468149 -13.41711672 28.20223436 -21 30 C-22.07636719 30.30164063 -23.15273438 30.60328125 -24.26171875 30.9140625 C-33.23501109 33.32345342 -41.79020111 33.29780188 -51 33 C-51.67934107 31.77779263 -52.34291523 30.54681549 -53 29.3125 C-53.37125 28.62800781 -53.7425 27.94351562 -54.125 27.23828125 C-55.1232653 24.68468296 -55.15233386 22.71820729 -55 20 C-54.02160156 19.82984375 -53.04320312 19.6596875 -52.03515625 19.484375 C-45.41704812 18.28031393 -39.28637107 16.98693554 -33.2265625 13.95703125 C-30.58374665 12.82108408 -28.00097231 12.28000128 -25.1875 11.6875 C-18.31302887 10.09635003 -12.8964855 6.76553501 -7 3 C-2.24772727 0 -2.24772727 0 0 0 Z " fill="#F4F5F4" transform="translate(422,310)"/>
<path d="M0 0 C3.14550813 -0.11792821 6.29043541 -0.18781383 9.4375 -0.25 C10.31599609 -0.28351562 11.19449219 -0.31703125 12.09960938 -0.3515625 C20.21337443 -0.47132287 26.56399829 1.5631802 32.625 7.0625 C42.7188274 18.03302133 42.7188274 18.03302133 43.1796875 24.53515625 C41.28876305 28.48606131 37.9054524 29.8368027 34.125 31.8125 C33.02478516 32.42254883 33.02478516 32.42254883 31.90234375 33.04492188 C26.44910714 36 26.44910714 36 23 36 C22.61630249 35.22305786 22.61630249 35.22305786 22.22485352 34.43041992 C16.55969431 23.05845521 11.0230977 12.71933049 1.7421875 3.83984375 C0 2 0 2 0 0 Z " fill="#F3F4F4" transform="translate(286,26)"/>
<path d="M0 0 C1.875 0.25 1.875 0.25 4 1 C5.72511313 3.81663926 6.3907737 6.45400445 6.9375 9.6875 C7.72136289 13.89690545 8.87426462 17.78393194 10.29296875 21.81640625 C10.96083629 23.87904689 11.40821162 25.87238133 11.8125 28 C12.76810377 32.6160521 14.3393391 36.95147587 15.9375 41.375 C19.57698096 51.47699804 22.21039291 61.40001955 24 72 C19.05 72 14.1 72 9 72 C9 71.34 9 70.68 9 70 C10.32 70 11.64 70 13 70 C12.64695801 68.98687744 12.29391602 67.97375488 11.93017578 66.92993164 C10.60935805 63.13529028 9.29518658 59.33837419 7.98291016 55.54077148 C7.41633397 53.9040854 6.84800798 52.26800387 6.27783203 50.63256836 C5.45393462 48.26837236 4.63656099 45.90200237 3.8203125 43.53515625 C3.56814972 42.81602554 3.31598694 42.09689484 3.05618286 41.35597229 C1.53889605 36.93206392 0.4039823 32.55869352 -0.46633911 27.96165466 C-0.96980009 25.70206832 -0.96980009 25.70206832 -3 23 C-3.42256927 20.05591296 -3.3243094 17.09624511 -3.3125 14.125 C-3.32861328 13.32191406 -3.34472656 12.51882813 -3.36132812 11.69140625 C-3.36524027 6.94206806 -2.99856878 3.90842474 0 0 Z " fill="#ECEDED" transform="translate(213,494)"/>
<path d="M0 0 C2.32737792 0.00534806 4.65456157 0.00002602 6.98193359 -0.00634766 C11.47665072 -0.01003253 15.96863233 0.03950396 20.46240234 0.13037109 C21.53729919 0.15025085 21.53729919 0.15025085 22.63391113 0.17053223 C24.68518134 0.21940284 26.73288693 0.29802772 28.78271484 0.38818359 C30.53865967 0.45610107 30.53865967 0.45610107 32.33007812 0.52539062 C36.11234967 1.25590262 37.82336498 2.34235097 40.46240234 5.13037109 C40.95740234 7.60537109 40.95740234 7.60537109 41.46240234 10.13037109 C17.37240234 10.13037109 -6.71759766 10.13037109 -31.53759766 10.13037109 C-30.53759766 4.13037109 -30.53759766 4.13037109 -28.53759766 1.13037109 C-19.42436207 -0.78752475 -9.30761218 -0.02535071 0 0 Z " fill="#EBECEC" transform="translate(280.53759765625,148.86962890625)"/>
<path d="M0 0 C6.37995703 0.05780256 12.60302735 0.79775827 18.91796875 1.65625 C20.01302734 1.79933594 21.10808594 1.94242188 22.23632812 2.08984375 C24.90193616 2.43905004 27.56652521 2.79460259 30.23046875 3.15625 C29.62036858 6.54410036 29.23756183 7.14965179 26.54296875 9.65625 C17.66818008 15.4239698 7.79492437 16.51614965 -2.51953125 16.59375 C-3.3820752 16.6038208 -4.24461914 16.6138916 -5.13330078 16.62426758 C-11.41558369 16.53972836 -16.85369591 15.23121897 -22.76953125 13.15625 C-21.44460774 10.0023963 -20.38294381 8.58845253 -17.328125 7.05078125 C-16.32942383 6.53547852 -16.32942383 6.53547852 -15.31054688 6.00976562 C-14.26930664 5.49446289 -14.26930664 5.49446289 -13.20703125 4.96875 C-3.45554346 0.00746674 -3.45554346 0.00746674 0 0 Z " fill="#EDEEEE" transform="translate(344.76953125,60.84375)"/>
<path d="M0 0 C4.875 0.875 4.875 0.875 6 2 C6.09867669 3.36825469 6.13079068 4.74147445 6.1328125 6.11328125 C6.13474609 7.3672168 6.13474609 7.3672168 6.13671875 8.64648438 C6.13285156 9.52626953 6.12898437 10.40605469 6.125 11.3125 C6.12886719 12.18068359 6.13273438 13.04886719 6.13671875 13.94335938 C6.13542969 14.78318359 6.13414062 15.62300781 6.1328125 16.48828125 C6.13168457 17.25696533 6.13055664 18.02564941 6.12939453 18.81762695 C6 21 6 21 5.51048279 22.87852478 C4.9982552 25.00725108 4.80656981 26.94159605 4.70288086 29.12597656 C4.66291489 29.92650452 4.62294891 30.72703247 4.58177185 31.55181885 C4.54318558 32.40612488 4.5045993 33.26043091 4.46484375 34.140625 C4.42186661 35.02280701 4.37888947 35.90498901 4.33460999 36.81390381 C4.19848715 39.62577044 4.06792279 42.43786378 3.9375 45.25 C3.84606964 47.15887176 3.75427703 49.0677262 3.66210938 50.9765625 C3.43720555 55.65085131 3.21728578 60.32535112 3 65 C-0.90136909 63.69954364 -1.49287369 62.08176649 -3.625 58.625 C-4.23601562 57.64789063 -4.84703125 56.67078125 -5.4765625 55.6640625 C-9.89430617 47.93867485 -7.96110358 39.46753311 -6.25 31.15234375 C-5.98364746 29.80638878 -5.98364746 29.80638878 -5.71191406 28.4332428 C-5.14927969 25.59966124 -4.57485737 22.76862431 -4 19.9375 C-3.61379796 18.00341187 -3.2283738 16.06916823 -2.84375 14.13476562 C-1.90481232 9.4213325 -0.9553036 4.71014219 0 0 Z " fill="#E8E9E9" transform="translate(205,381)"/>
<path d="M0 0 C0.53414112 1.89212702 1.05178329 3.78891636 1.5625 5.6875 C1.85253906 6.74324219 2.14257812 7.79898438 2.44140625 8.88671875 C3.00438979 12.02446616 2.91120706 13.97173701 2 17 C1 18 1 18 -2.125 18.75 C-6 18 -6 18 -7.984375 15.72265625 C-10.8991162 11.2361228 -13.23638762 7.35507658 -14 2 C-12.4176994 1.66179834 -10.83410625 1.32964061 -9.25 1 C-8.36828125 0.814375 -7.4865625 0.62875 -6.578125 0.4375 C-4 0 -4 0 0 0 Z " fill="#EFF0F0" transform="translate(268,100)"/>
<path d="M0 0 C1.23105469 -0.00515625 2.46210938 -0.0103125 3.73046875 -0.015625 C6.8125 0.25 6.8125 0.25 8.8125 2.25 C8.8125 3.57 8.8125 4.89 8.8125 6.25 C3.13984757 8.72533924 -1.9576439 10.37602507 -8.1875 9.25 C-10.75 7.4375 -10.75 7.4375 -12.1875 5.25 C-12.1875 4.26 -12.1875 3.27 -12.1875 2.25 C-8.02586538 0.25241538 -4.59291594 -0.01935897 0 0 Z " fill="#EAEBEA" transform="translate(186.1875,504.75)"/>
<path d="M0 0 C0.6875 1.6875 0.6875 1.6875 1 4 C-0.4375 6.6875 -0.4375 6.6875 -2 9 C-2 9.33 -2 9.66 -2 10 C-7.63526965 11.20484722 -13.14536115 11.1129643 -18.875 11.0625 C-20.33679688 11.05573242 -20.33679688 11.05573242 -21.828125 11.04882812 C-24.21881434 11.03710906 -26.6093744 11.02070219 -29 11 C-28.2578125 7.21875 -28.2578125 7.21875 -25.9375 5.25 C-22.17083611 3.6471643 -19.03984304 3.35000489 -15 4 C-13.31970006 4.97691857 -11.65071396 5.97388051 -10 7 C-7.42459787 6.83492354 -7.42459787 6.83492354 -5 6 C-4.236875 5.814375 -3.47375 5.62875 -2.6875 5.4375 C-2.130625 5.293125 -1.57375 5.14875 -1 5 C-0.67 3.35 -0.34 1.7 0 0 Z " fill="#DDDDDC" transform="translate(300,122)"/>
<path d="M0 0 C4.7578125 0.7890625 4.7578125 0.7890625 6.9375 2.6875 C8 5 8 5 7.1875 8 C6.795625 8.99 6.40375 9.98 6 11 C6 12.32 6 13.64 6 15 C4.68 15.33 3.36 15.66 2 16 C-0.14336161 12.5233662 -0.21277626 9.78770805 -0.125 5.75 C-0.10695312 4.67234375 -0.08890625 3.5946875 -0.0703125 2.484375 C-0.04710937 1.66453125 -0.02390625 0.8446875 0 0 Z " fill="#393A3A" transform="translate(246,494)"/>
<path d="M0 0 C0.33 0 0.66 0 1 0 C1 2.64 1 5.28 1 8 C3.31 8.33 5.62 8.66 8 9 C8 9.33 8 9.66 8 10 C7.11957031 10.06058594 6.23914063 10.12117188 5.33203125 10.18359375 C3.58986328 10.30927734 3.58986328 10.30927734 1.8125 10.4375 C0.66394531 10.51871094 -0.48460937 10.59992188 -1.66796875 10.68359375 C-4.51598171 10.95403812 -7.21210482 11.37521747 -10 12 C-9.67 13.32 -9.34 14.64 -9 16 C-9.66 16 -10.32 16 -11 16 C-11.33 13.03 -11.66 10.06 -12 7 C-9.72135417 6.8046875 -7.44270833 6.609375 -5.1640625 6.4140625 C-2.79665809 6.17107412 -2.79665809 6.17107412 -1 4 C-0.3574765 1.93125966 -0.3574765 1.93125966 0 0 Z " fill="#484C4C" transform="translate(184,495)"/>
<path d="M0 0 C2.10409639 -0.02701408 4.20829178 -0.04640223 6.3125 -0.0625 C7.48425781 -0.07410156 8.65601563 -0.08570313 9.86328125 -0.09765625 C13 0 13 0 16 1 C16.51821747 4.16688451 16.75518518 5.93898272 16 9 C12.75108264 13.27840969 9.16316273 17.27894576 4 19 C4 18.34 4 17.68 4 17 C5.48882144 15.80894285 6.9778725 14.61817003 8.46875 13.4296875 C11.51766606 10.58299547 12.71006691 6.86979927 14 3 C9.37269289 1.9551242 4.71146122 1.48243721 0 1 C0 0.67 0 0.34 0 0 Z " fill="#4A4C4B" transform="translate(292,537)"/>
<path d="M0 0 C3.0625 0.125 3.0625 0.125 5.0625 1.125 C4.75 3 4.75 3 4.0625 5.125 C1.0625 7.125 1.0625 7.125 -2.9375 7.125 C-3.31883299 5.1335944 -3.65075582 3.13220923 -3.9375 1.125 C-2.9375 0.125 -2.9375 0.125 0 0 Z " fill="#CECFCF" transform="translate(244.9375,80.875)"/>
<path d="M0 0 C0.33 0 0.66 0 1 0 C1.08926293 5.64269264 0.79568371 11.0867905 0.125 16.6875 C0.04636719 17.42033203 -0.03226563 18.15316406 -0.11328125 18.90820312 C-0.58103123 22.89847026 -1.28936155 26.35590884 -3 30 C-3.33 30 -3.66 30 -4 30 C-3.42358005 19.86295948 -1.76356149 9.98242354 0 0 Z " fill="#979898" transform="translate(143,413)"/>
<path d="M0 0 C0.886875 0.12375 1.77375 0.2475 2.6875 0.375 C2.11 0.6225 1.5325 0.87 0.9375 1.125 C-1.87743867 2.68885481 -3.39911593 3.73584956 -5.3125 6.375 C-5.94508899 9.70001319 -6.18352879 12.99595427 -6.3125 16.375 C-8.3125 14.375 -8.3125 14.375 -8.75 10.625 C-8.66217613 7.41650142 -8.10286893 5.46167187 -6.1875 2.875 C-3.3125 0.375 -3.3125 0.375 0 0 Z " fill="#AFB3B3" transform="translate(292.3125,90.625)"/>
<path d="M0 0 C0.99 0 1.98 0 3 0 C3.33 2.97 3.66 5.94 4 9 C1.36 8.67 -1.28 8.34 -4 8 C-3.34 7.34 -2.68 6.68 -2 6 C-1.28591666 4.01643517 -0.61382258 2.01684563 0 0 Z " fill="#4C4F4D" transform="translate(266,25)"/>
<path d="M0 0 C0.33 0 0.66 0 1 0 C1.07347656 1.46373047 1.07347656 1.46373047 1.1484375 2.95703125 C1.22320312 4.22933594 1.29796875 5.50164062 1.375 6.8125 C1.44460937 8.07707031 1.51421875 9.34164062 1.5859375 10.64453125 C1.76102939 14.12755234 1.76102939 14.12755234 4 17 C4.125 19.6875 4.125 19.6875 4 22 C-0.23782433 16.6064054 -1.27268088 13.74495355 -0.625 6.75 C-0.51414063 5.48671875 -0.40328125 4.2234375 -0.2890625 2.921875 C-0.19367188 1.95765625 -0.09828125 0.9934375 0 0 Z " fill="#343835" transform="translate(209,503)"/>
<path d="M0 0 C0.6875 1.6875 0.6875 1.6875 1 4 C-0.4375 6.6875 -0.4375 6.6875 -2 9 C-2 9.33 -2 9.66 -2 10 C-4.875 10.125 -4.875 10.125 -8 10 C-8.66 9.34 -9.32 8.68 -10 8 C-7.03 7.01 -4.06 6.02 -1 5 C-0.67 3.35 -0.34 1.7 0 0 Z " fill="#C3C7C6" transform="translate(300,122)"/>
<path d="M0 0 C4.61286713 1.31796204 8.14865412 3.13388214 12 6 C12.33 6.66 12.66 7.32 13 8 C11.35 7.67 9.7 7.34 8 7 C8 6.34 8 5.68 8 5 C7.05125 4.690625 6.1025 4.38125 5.125 4.0625 C2 3 2 3 0 2 C0 1.34 0 0.68 0 0 Z " fill="#ACAEAD" transform="translate(375,172)"/>
<path d="M0 0 C-1.65 0.66 -3.3 1.32 -5 2 C-5 3.65 -5 5.3 -5 7 C-5.99 6.67 -6.98 6.34 -8 6 C-8.33 4.35 -8.66 2.7 -9 1 C-5.57367167 -0.61798838 -3.61944899 -1.34053666 0 0 Z " fill="#B1B3B0" transform="translate(183,506)"/>
<path d="M0 0 C1.875 0.125 1.875 0.125 4 1 C5.25 4.0625 5.25 4.0625 6 7 C5.401875 6.505 4.80375 6.01 4.1875 5.5 C2.02970006 3.71723582 2.02970006 3.71723582 -1 4 C-0.67 2.68 -0.34 1.36 0 0 Z " fill="#C9CBC9" transform="translate(170,459)"/>
<path d="M0 0 C4.455 0.99 4.455 0.99 9 2 C9 2.33 9 2.66 9 3 C8.05125 2.938125 7.1025 2.87625 6.125 2.8125 C4.578125 2.9053125 4.578125 2.9053125 3 3 C2.34 3.99 1.68 4.98 1 6 C0.67 4.02 0.34 2.04 0 0 Z " fill="#858785" transform="translate(129,285)"/>
<path d="M0 0 C-2.76223278 2.76223278 -5.20706617 2.57856291 -9 3 C-9 2.01 -9 1.02 -9 0 C-3.375 -1.125 -3.375 -1.125 0 0 Z " fill="#1E2323" transform="translate(183,503)"/>
<path d="M0 0 C0.98120464 3.05263664 0.98120464 4.94736336 0 8 C-0.66 8 -1.32 8 -2 8 C-2 8.99 -2 9.98 -2 11 C-2.66 11 -3.32 11 -4 11 C-3.52269162 9.5410574 -3.04308958 8.08286504 -2.5625 6.625 C-2.29566406 5.81289063 -2.02882813 5.00078125 -1.75390625 4.1640625 C-1 2 -1 2 0 0 Z " fill="#585A58" transform="translate(352,260)"/>
<path d="M0 0 C-1.04874998 2.62187494 -1.64931313 3.79371361 -4.125 5.25 C-4.74375 5.4975 -5.3625 5.745 -6 6 C-3.84615385 0 -3.84615385 0 0 0 Z " fill="#5F615E" transform="translate(153,266)"/>
<path d="M0 0 C0.66 0.33 1.32 0.66 2 1 C0.02 3.31 -1.96 5.62 -4 8 C-4.66 7.67 -5.32 7.34 -6 7 C-4.02 4.69 -2.04 2.38 0 0 Z " fill="#767676" transform="translate(171,188)"/>
<path d="M0 0 C0.94875 0.04125 1.8975 0.0825 2.875 0.125 C2.0396875 0.49625 2.0396875 0.49625 1.1875 0.875 C-1.52471127 2.34106015 -3.76087365 4.15489471 -6.125 6.125 C-5.28810868 1.94054341 -4.61542241 0.1846169 0 0 Z " fill="#C6C7C9" transform="translate(292.125,90.875)"/>
</svg>
